<svg width="128" height="128" viewBox="0 0 128 128" fill="none" xmlns="http://www.w3.org/2000/svg">
  <rect width="128" height="128" rx="24" fill="#F7F7F2"/>
  <path d="M24 38.5C24 34.4 27.2 31.1 31.3 31.1H96.7C100.8 31.1 104 34.4 104 38.5V89.5C104 93.6 100.8 96.9 96.7 96.9H31.3C27.2 96.9 24 93.6 24 89.5V38.5Z" fill="#FCB400"/>
  <path d="M31.3 31.1H96.7C100.8 31.1 104 34.4 104 38.5V51.8H24V38.5C24 34.4 27.2 31.1 31.3 31.1Z" fill="#18BFFF"/>
  <path d="M24 51.8H64V96.9H31.3C27.2 96.9 24 93.6 24 89.5V51.8Z" fill="#F82B60"/>
  <path d="M64 51.8H104V89.5C104 93.6 100.8 96.9 96.7 96.9H64V51.8Z" fill="#FCB400"/>
  <path d="M64 51.8H104L64 70.5V51.8Z" fill="#DFA000" opacity="0.45"/>
  <path d="M24 51.8H64V70.5L24 51.8Z" fill="#BA1D49" opacity="0.45"/>
</svg>
