<svg width="120" height="120" viewBox="0 0 120 120" fill="none" xmlns="http://www.w3.org/2000/svg">
  <rect x="1.5" y="1.5" width="117" height="117" rx="24" fill="#F7FBFF"/>
  <rect x="1.5" y="1.5" width="117" height="117" rx="24" stroke="#DBEAFE" stroke-width="3"/>
  <path d="M31 35L48 49" stroke="#BFD3EA" stroke-width="6" stroke-linecap="round"/>
  <path d="M89 35L72 49" stroke="#BFD3EA" stroke-width="6" stroke-linecap="round"/>
  <path d="M31 85L48 71" stroke="#BFD3EA" stroke-width="6" stroke-linecap="round"/>
  <path d="M89 85L72 71" stroke="#BFD3EA" stroke-width="6" stroke-linecap="round"/>
  <rect x="18" y="20" width="31" height="31" rx="9" fill="#2F80ED"/>
  <path d="M27 35.5H40" stroke="white" stroke-width="4" stroke-linecap="round"/>
  <path d="M33.5 29V42" stroke="white" stroke-width="4" stroke-linecap="round"/>
  <rect x="71" y="20" width="31" height="31" rx="9" fill="#8B5CF6"/>
  <circle cx="86.5" cy="35.5" r="7" stroke="white" stroke-width="4"/>
  <rect x="18" y="69" width="31" height="31" rx="9" fill="#F59E0B"/>
  <path d="M26 84L31 89L41 77" stroke="white" stroke-width="4" stroke-linecap="round" stroke-linejoin="round"/>
  <rect x="71" y="69" width="31" height="31" rx="9" fill="#10B981"/>
  <path d="M86.5 76L89.3 82.1L95.8 83L91.1 87.3L92.2 94L86.5 90.8L80.8 94L81.9 87.3L77.2 83L83.7 82.1L86.5 76Z" fill="white"/>
  <rect x="31" y="34" width="58" height="52" rx="13" fill="white" stroke="#60A5FA" stroke-width="5"/>
  <path d="M41 74L53 59.5L62.5 69L71 56L81 74H41Z" fill="#22C55E"/>
  <circle cx="72" cy="51.5" r="5.5" fill="#FACC15"/>
  <path d="M60 19V11" stroke="#FBBF24" stroke-width="5" stroke-linecap="round"/>
  <path d="M60 109V101" stroke="#FBBF24" stroke-width="5" stroke-linecap="round"/>
  <path d="M101 60H109" stroke="#FBBF24" stroke-width="5" stroke-linecap="round"/>
  <path d="M11 60H19" stroke="#FBBF24" stroke-width="5" stroke-linecap="round"/>
  <path d="M97 23L103 17" stroke="#FBBF24" stroke-width="4" stroke-linecap="round"/>
  <path d="M17 103L23 97" stroke="#FBBF24" stroke-width="4" stroke-linecap="round"/>
</svg>
