<svg width="128" height="128" viewBox="0 0 128 128" fill="none" xmlns="http://www.w3.org/2000/svg">
  <rect width="128" height="128" rx="24" fill="#FFFFFF"/>
  <path d="M45.6 72.4C45.6 77 41.8 80.8 37.2 80.8C32.6 80.8 28.8 77 28.8 72.4C28.8 67.8 32.6 64 37.2 64H45.6V72.4Z" fill="#E01E5A"/>
  <path d="M49.8 72.4C49.8 67.8 53.6 64 58.2 64C62.8 64 66.6 67.8 66.6 72.4V93.4C66.6 98 62.8 101.8 58.2 101.8C53.6 101.8 49.8 98 49.8 93.4V72.4Z" fill="#E01E5A"/>
  <path d="M58.2 45.6C53.6 45.6 49.8 41.8 49.8 37.2C49.8 32.6 53.6 28.8 58.2 28.8C62.8 28.8 66.6 32.6 66.6 37.2V45.6H58.2Z" fill="#36C5F0"/>
  <path d="M58.2 49.8C62.8 49.8 66.6 53.6 66.6 58.2C66.6 62.8 62.8 66.6 58.2 66.6H37.2C32.6 66.6 28.8 62.8 28.8 58.2C28.8 53.6 32.6 49.8 37.2 49.8H58.2Z" fill="#36C5F0"/>
  <path d="M82.4 58.2C82.4 53.6 86.2 49.8 90.8 49.8C95.4 49.8 99.2 53.6 99.2 58.2C99.2 62.8 95.4 66.6 90.8 66.6H82.4V58.2Z" fill="#2EB67D"/>
  <path d="M78.2 58.2C78.2 62.8 74.4 66.6 69.8 66.6C65.2 66.6 61.4 62.8 61.4 58.2V37.2C61.4 32.6 65.2 28.8 69.8 28.8C74.4 28.8 78.2 32.6 78.2 37.2V58.2Z" fill="#2EB67D"/>
  <path d="M69.8 82.4C74.4 82.4 78.2 86.2 78.2 90.8C78.2 95.4 74.4 99.2 69.8 99.2C65.2 99.2 61.4 95.4 61.4 90.8V82.4H69.8Z" fill="#ECB22E"/>
  <path d="M69.8 78.2C65.2 78.2 61.4 74.4 61.4 69.8C61.4 65.2 65.2 61.4 69.8 61.4H90.8C95.4 61.4 99.2 65.2 99.2 69.8C99.2 74.4 95.4 78.2 90.8 78.2H69.8Z" fill="#ECB22E"/>
</svg>
